<svg id="图层_1" data-name="图层 1" xmlns="http://www.w3.org/2000/svg" viewBox="0 0 1920 1080"><defs><style>.cls-1{fill:#ebeee8;}.cls-2{fill:#d6c693;}.cls-3{fill:#ccc;}.cls-4{fill:#999;}</style></defs><rect class="cls-1" x="0.37" y="0.15" width="1919.26" height="1079.85"/><path class="cls-2" d="M.37,267.8V0H556.78c-1.21,19.46-6.94,39-16.41,57.58-13.31,26.11-34,50.25-60,69.42-47,34.71-111.18,53.07-179.75,37.11-7.21-2-24.07-6.39-45.54-10.16-27.72-4.87-63.13-8.68-95.33-4.94-53.53,6.2-98.21,33.27-84,111.1q1.77,9.69,3,18.7A278.42,278.42,0,0,1,81.24,330C77,411.28,29,431.88.37,432.33Z"/><path class="cls-3" d="M.37,267.8V0H705.18C653.77,95.05,558.24,131.14,480.41,127c-29.93-1.59-57.25-9.13-78.42-21.56-74.9-44-114.76-3.66-146.87,48.51-3,4.79-5.84,9.68-8.68,14.61C176.76,280,122.08,321.25,81.24,330c-39.69,8.55-66.3-13.58-80.87-31.83Z"/><path class="cls-4" d="M5.74,270.34q-2.88-.91-5.72-1.87l.46-1.34c1.88.63,3.77,1.25,5.69,1.86Z"/><path class="cls-4" d="M65.56,280.4l0-1.42a119.66,119.66,0,0,0,12-.76l.16,1.41C73.83,280.08,69.73,280.34,65.56,280.4ZM53.38,280c-3.93-.29-8-.74-12.12-1.34l.21-1.4c4.08.6,8.12,1,12,1.33Zm36.4-2.51-.34-1.38a86.61,86.61,0,0,0,11.47-3.6l.52,1.31A86.43,86.43,0,0,1,89.78,277.51Zm-60.51-1c-3.86-.81-7.85-1.76-11.84-2.82l.36-1.37c4,1.05,7.93,2,11.77,2.8Zm83.15-8.06-.71-1.22a75.25,75.25,0,0,0,9.81-6.9l.91,1.09A75,75,0,0,1,112.42,268.49Zm18.76-15.56-1.06-.93a85.54,85.54,0,0,0,7.26-9.57l1.19.77A86.63,86.63,0,0,1,131.18,252.93Zm13.42-20.34-1.27-.62a117.89,117.89,0,0,0,4.74-11.08l1.33.5A117.84,117.84,0,0,1,144.6,232.59Zm8.53-22.81-1.37-.37c1-3.75,2-7.7,2.78-11.75l1.39.28C155.11,202,154.17,206,153.13,209.78ZM158,185.93l-1.4-.19c.53-3.86,1-7.91,1.34-12l1.41.13C158.94,178,158.49,182.05,158,185.93Zm2.14-24.22-1.42-.06c.17-3.92.27-8,.29-12.1h1.42C160.35,153.69,160.26,157.78,160.09,161.71Zm.56-24.25-1.41-.07c.18-4.12.46-8.21.83-12.13l1.41.14C161.12,129.29,160.84,133.35,160.65,137.46ZM163,113.4l-1.4-.21c.62-4.11,1.37-8.13,2.22-12l1.39.31C164.31,105.33,163.57,109.33,163,113.4Zm5.26-23.54-1.36-.42c1.22-4,2.59-7.83,4.08-11.48l1.31.54C170.77,82.1,169.41,85.93,168.21,89.86ZM479,68.46c-4,0-8.11-.16-12.17-.43l.1-1.41c4,.26,8.09.4,12.08.42Zm12.18-.33-.09-1.41c4-.24,8.08-.61,12-1.11l.18,1.41C499.29,67.52,495.21,67.89,491.15,68.13Zm-313.78-.52-1.24-.68a99.8,99.8,0,0,1,6.43-10.37l1.15.83A98.22,98.22,0,0,0,177.37,67.61Zm277.31-.74c-4-.49-8-1.12-12-1.85l.25-1.39c4,.72,8,1.34,12,1.84ZM515.3,65.1,515,63.71c4-.77,7.91-1.68,11.78-2.71l.37,1.37C523.28,63.41,519.28,64.33,515.3,65.1Zm-84.57-2.59c-3.91-.94-7.87-2-11.76-3.14l.4-1.36c3.87,1.14,7.8,2.19,11.69,3.12Zm108.1-3.69-.46-1.34c.55-.18,1.1-.37,1.64-.57,3.24-1.14,6.49-2.4,9.65-3.73l.55,1.3c-3.19,1.35-6.46,2.62-9.72,3.77Zm-131.44-3.2c-3.82-1.35-7.65-2.81-11.37-4.34l.54-1.31c3.7,1.52,7.51,3,11.3,4.31Zm153.88-6.25-.63-1.26c3.56-1.8,7.13-3.75,10.6-5.8l.72,1.22C568.46,45.6,564.87,47.56,561.27,49.37Zm-370-1.3-1-1a87.73,87.73,0,0,1,8.95-8.31l.89,1.11A84.91,84.91,0,0,0,191.3,48.07Zm193.57-1.64c-3.66-1.59-7.42-3.16-11.19-4.66l.53-1.32c3.78,1.51,7.56,3.08,11.23,4.68Zm-22.52-9c-3.81-1.39-7.66-2.72-11.45-4l.45-1.35c3.8,1.25,7.66,2.59,11.49,4ZM582.25,37l-.8-1.18c3.29-2.24,6.58-4.63,9.78-7.1l.87,1.12C588.88,32.34,585.56,34.75,582.25,37ZM210,33.05l-.72-1.22a93.29,93.29,0,0,1,10.89-5.51l.56,1.31A91.29,91.29,0,0,0,210,33.05Zm129.34-3.17c-3.91-1.14-7.85-2.22-11.69-3.19l.35-1.38c3.86,1,7.81,2.06,11.74,3.21Zm-23.48-5.94c-4-.85-8-1.61-11.9-2.25l.23-1.4c3.91.65,7.93,1.41,12,2.26Zm-83.8-.35-.39-1.36a117.07,117.07,0,0,1,11.88-2.77l.25,1.39A117,117,0,0,0,232.05,23.59Zm369.46-1.47-.93-1.07c3-2.61,6-5.36,8.89-8.19l1,1C607.53,16.72,604.52,19.49,601.51,22.12ZM292,20c-4.08-.47-8.14-.82-12.06-1l.08-1.41c3.95.22,8,.57,12.14,1Zm-36.2-.74-.13-1.42c3.93-.34,8-.54,12.18-.58v1.42C263.71,18.73,259.65,18.92,255.76,19.27Z"/><path class="cls-4" d="M619.19,4.93l-1-1c1.35-1.46,2.7-2.95,4-4.44l1.06.94C621.9,2,620.54,3.47,619.19,4.93Z"/><path class="cls-2" d="M1919.75,0V295.54c-83.22,69.67-143.51,1.16-139.37-43.43,4.78-51.55-1-222.22-169.42-164.44-128.3,44-203.29-43.47-231.75-87.67Z"/><path class="cls-3" d="M.37,1079.07V675.39c105.57-95.17,182-1.59,176.79,59.32-6.06,70.41,1.22,303.53,214.92,224.61,162.75-60.1,257.88,59.38,294,119.75Z"/><circle class="cls-1" cx="90.32" cy="75.91" r="33.78"/><circle class="cls-1" cx="62.42" cy="139.85" r="11.01"/><path class="cls-3" d="M1919.63,838.63V1080H1284.37c46.34-85.67,132.44-118.2,202.59-114.47,27,1.44,51.6,8.23,70.68,19.44,67.51,39.62,103.44,3.29,132.38-43.73,2.67-4.32,5.26-8.72,7.82-13.17,62.8-100.41,112.09-137.62,148.9-145.54,35.77-7.71,59.76,12.24,72.89,28.69Z"/><path class="cls-2" d="M1919.63,838.63V1080h-501.5c1.09-17.54,6.25-35.17,14.79-51.9,12-23.53,30.65-45.29,54-62.57a196.29,196.29,0,0,1,162-33.45c6.5,1.81,21.7,5.76,41,9.16,25,4.39,56.9,7.83,85.92,4.45,48.25-5.58,88.52-30,75.73-100.13q-1.61-8.73-2.67-16.86a251.63,251.63,0,0,1-2.26-46.17c3.81-73.22,47.08-91.79,72.89-92.2Z"/><circle class="cls-1" cx="1849.54" cy="1015.14" r="30.44"/><circle class="cls-2" cx="1772.43" cy="378.13" r="30.44"/><circle class="cls-2" cx="1718.66" cy="425.22" r="13.55"/><circle class="cls-3" cx="190.64" cy="600.42" r="30.44"/><circle class="cls-3" cx="265.03" cy="583.52" r="13.55"/><circle class="cls-1" cx="1787.25" cy="994.62" r="9.92"/><circle class="cls-1" cx="1799" cy="1027.09" r="6.83"/><path class="cls-4" d="M1341,1080.59l-.78-1.18s3.71-2.43,10.32-6.31l.72,1.22C1344.64,1078.18,1341,1080.57,1341,1080.59Zm447.78-.92c-.87-.84-1.75-1.67-2.63-2.49l1-1c.88.82,1.76,1.66,2.64,2.5Zm-11.53-10.49c-3-2.61-6.12-5.17-9.22-7.63l.88-1.11c3.12,2.47,6.24,5,9.27,7.67Zm-415.56-.8-.69-1.24c3.44-1.91,7-3.83,10.6-5.71l.66,1.26C1368.63,1064.57,1365.08,1066.48,1361.65,1068.38Zm21.26-11.16-.64-1.27c3.55-1.76,7.19-3.53,10.83-5.25l.6,1.28C1390.08,1053.7,1386.45,1055.46,1382.91,1057.22Zm375.55-2.91c-3.21-2.33-6.52-4.62-9.83-6.81l.78-1.18c3.33,2.19,6.65,4.5,9.88,6.85ZM1404.6,1047l-.58-1.29c3.66-1.64,7.37-3.26,11-4.81l.55,1.31C1412,1043.71,1408.25,1045.33,1404.6,1047Zm333.9-5.84c-3.42-2-6.92-4-10.4-5.91l.68-1.25c3.5,1.89,7,3.89,10.45,6Zm-311.81-3.52-.52-1.32c3.72-1.49,7.49-3,11.21-4.35l.5,1.33C1434.17,1034.65,1430.4,1036.11,1426.69,1037.6Zm290.76-7.83c-3.59-1.72-7.25-3.39-10.9-4.94l.56-1.3c3.66,1.56,7.35,3.23,11,5Zm-268.3-.61-.47-1.34c3.79-1.33,7.62-2.63,11.38-3.86l.44,1.35C1456.75,1026.53,1452.93,1027.83,1449.15,1029.16Zm22.79-7.45-.41-1.36c3.86-1.16,7.75-2.29,11.55-3.34l.38,1.37C1479.67,1019.42,1475.79,1020.55,1471.94,1021.71Zm223.51-1.33c-3.72-1.39-7.52-2.72-11.3-3.94l.43-1.35c3.8,1.23,7.62,2.56,11.36,4Zm-200.39-5.06-.35-1.37c3.89-1,7.83-1.91,11.7-2.77l.31,1.38C1502.86,1013.42,1498.93,1014.35,1495.06,1015.32Zm177.63-2.32c-3.81-1-7.72-2-11.6-2.92l.31-1.39c3.91.9,7.83,1.89,11.66,2.95Zm-154.24-2.9-.27-1.39c3.93-.77,7.91-1.49,11.83-2.15l.24,1.4C1526.34,1008.61,1522.37,1009.33,1518.45,1010.1Zm130.92-2.46c-3.89-.72-7.86-1.37-11.81-1.94l.2-1.4c4,.57,8,1.23,11.87,2Zm-107.28-1.49-.19-1.4c4-.55,8-1,11.93-1.46l.15,1.41C1550.07,1005.12,1546.07,1005.61,1542.09,1006.15Zm83.6-1.91c-3.93-.4-7.94-.74-11.93-1l.09-1.42c4,.26,8,.6,12,1Zm-59.78-.63-.1-1.42c4-.3,8-.54,12-.71l.06,1.42C1573.91,1003.07,1569.89,1003.31,1565.91,1003.61Zm35.89-.91c-3.93-.1-8-.14-12-.11v-1.42c4,0,8.07,0,12,.12Z"/><path class="cls-4" d="M1483.29,171.32c-19.79,0-39.14-3-56.64-10.06-26.4-10.7-44.89-29.47-54.94-55.78C1357.05,67.11,1360.18,31.54,1381-.24l1.18.78C1361.63,31.92,1358.54,67.06,1373,105c9.91,25.93,28.13,44.42,54.15,55,17.33,7,36.51,10,56.12,10,39.65,0,81.09-12,112.74-26.77a469.12,469.12,0,0,1,119.81-37.35C1792.5,93.1,1861.17,103,1920,135.09l-.68,1.24c-126.77-69.29-267.86-17.42-322.64,8.09C1564.84,159.23,1523.18,171.32,1483.29,171.32Z"/><path class="cls-4" d="M199.29,1080.39c-44-66.48-54.81-142.49-57.31-181.88-3.87-60.89-27.69-115.32-62.15-142.06C58,739.53,32.73,733.64,4.66,739c-1.4.26-2.77.54-4.14.84l-.3-1.38c1.37-.3,2.76-.58,4.18-.86,28.47-5.4,54.15.58,76.3,17.76,41.56,32.25,59.64,95.06,62.7,143.09,2.49,39.25,13.22,115,57.07,181.19Z"/><path class="cls-4" d="M712,1080.58a410.59,410.59,0,0,1-34.28-27.17c-45.77-40.32-101.09-62-144.36-56.55-27.41,3.45-49.46,17.16-65.55,40.77a135.27,135.27,0,0,0-19.76,42.55l-1.38-.36c3.72-14.55,10.44-29,20-43,16.33-23.95,38.71-37.88,66.54-41.38,43.67-5.49,99.41,16.31,145.48,56.9a410.41,410.41,0,0,0,34.16,27.07Z"/></svg>